<svg xmlns="http://www.w3.org/2000/svg" viewBox="0 0 32 32">
    <rect x="7" y="1" width="2" height="5" fill="#2dd4bf"/>
    <rect x="13" y="1" width="2" height="5" fill="#2dd4bf"/>
    <rect x="19" y="1" width="2" height="5" fill="#2dd4bf"/>
    <rect x="25" y="1" width="2" height="5" fill="#2dd4bf"/>
    <rect x="7" y="26" width="2" height="5" fill="#2dd4bf"/>
    <rect x="13" y="26" width="2" height="5" fill="#2dd4bf"/>
    <rect x="19" y="26" width="2" height="5" fill="#2dd4bf"/>
    <rect x="25" y="26" width="2" height="5" fill="#2dd4bf"/>
    <rect x="1" y="7" width="5" height="2" fill="#2dd4bf"/>
    <rect x="1" y="13" width="5" height="2" fill="#2dd4bf"/>
    <rect x="1" y="19" width="5" height="2" fill="#2dd4bf"/>
    <rect x="1" y="25" width="5" height="2" fill="#2dd4bf"/>
    <rect x="26" y="7" width="5" height="2" fill="#2dd4bf"/>
    <rect x="26" y="13" width="5" height="2" fill="#2dd4bf"/>
    <rect x="26" y="19" width="5" height="2" fill="#2dd4bf"/>
    <rect x="26" y="25" width="5" height="2" fill="#2dd4bf"/>
    <rect x="6" y="6" width="20" height="20" rx="3" fill="#0f1419" stroke="#2dd4bf" stroke-width="2"/>
    <rect x="11" y="11" width="10" height="10" rx="1.5" fill="#2dd4bf"/>
</svg>
